<svg width="41" height="40" viewBox="0 0 41 40" fill="none" xmlns="http://www.w3.org/2000/svg">
<g clip-path="url(#clip0_2053_49)">
<rect x="0.5" y="16.6667" width="23.3333" height="23.3333" fill="#7595FD"/>
<path d="M32.1517 3.33331H15.5167C13.665 3.33331 12.1667 4.83165 12.1667 6.68331V16.0783L4.33001 23.815C4.0952 24.0472 3.93468 24.344 3.86881 24.6676C3.80295 24.9912 3.83471 25.3271 3.96006 25.6326C4.08542 25.9381 4.29872 26.1996 4.5729 26.3837C4.84707 26.5678 5.16976 26.6663 5.50001 26.6666V35C5.50001 35.442 5.6756 35.8659 5.98816 36.1785C6.30072 36.4911 6.72465 36.6666 7.16668 36.6666H33.8333C34.2754 36.6666 34.6993 36.4911 35.0119 36.1785C35.3244 35.8659 35.5 35.442 35.5 35V6.68165C35.5 4.83165 34.0033 3.33331 32.1517 3.33331ZM18.7033 25.185V33.3333H8.83334V24.0533L13.8117 19.1383L18.7033 24.1433V25.185ZM22.1667 15H18.8333V11.6666H22.1667V15ZM28.8333 28.3333H25.5V25H28.8333V28.3333ZM28.8333 21.6666H25.5V18.3333H28.8333V21.6666ZM28.8333 15H25.5V11.6666H28.8333V15Z" fill="#292E3D"/>
<path d="M12.1667 25H15.5V28.3333H12.1667V25Z" fill="#14171F"/>
</g>
<defs>
<clipPath id="clip0_2053_49">
<rect width="40" height="40" fill="white" transform="translate(0.5)"/>
</clipPath>
</defs>
</svg>
