<svg width="41" height="40" viewBox="0 0 41 40" fill="none" xmlns="http://www.w3.org/2000/svg">
<g clip-path="url(#clip0_2053_108)">
<rect x="0.5" y="16.6667" width="23.3333" height="23.3333" fill="#7595FD"/>
<path d="M33 4.99998C31.8952 5.00086 30.8359 5.44014 30.0547 6.22135C29.2735 7.00256 28.8342 8.06185 28.8333 9.16665C28.8333 9.76165 28.9633 10.3266 29.19 10.8416L25.9317 14.5066C24.8248 13.7426 23.5116 13.3334 22.1667 13.3333C20.9333 13.3333 19.7933 13.6933 18.8017 14.2766L15.0117 10.4883L14.9733 10.5266C15.3 9.86332 15.5 9.12498 15.5 8.33332C15.5 7.34441 15.2068 6.37771 14.6573 5.55546C14.1079 4.73322 13.327 4.09236 12.4134 3.71392C11.4998 3.33548 10.4945 3.23646 9.52455 3.42939C8.55464 3.62231 7.66373 4.09852 6.96447 4.79778C6.2652 5.49704 5.789 6.38796 5.59607 7.35786C5.40315 8.32777 5.50216 9.3331 5.8806 10.2467C6.25904 11.1604 6.8999 11.9413 7.72215 12.4907C8.54439 13.0401 9.51109 13.3333 10.5 13.3333C11.2917 13.3333 12.0283 13.1333 12.6933 12.8066L12.655 12.845L16.445 16.6333C15.8327 17.65 15.5062 18.8132 15.5 20C15.5 21.6616 16.1333 23.165 17.1417 24.335L12.8467 28.6283C12.3653 28.4356 11.8518 28.3355 11.3333 28.3333C9.03667 28.3333 7.16667 30.2016 7.16667 32.5C7.16667 34.7983 9.03667 36.6666 11.3333 36.6666C13.63 36.6666 15.5 34.7983 15.5 32.5C15.5 31.965 15.39 31.4566 15.205 30.985L19.935 26.255C20.6367 26.505 21.38 26.6666 22.1667 26.6666C25.8433 26.6666 28.8333 23.6766 28.8333 20C28.8333 18.94 28.5617 17.9516 28.12 17.06L31.6483 13.0883C32.075 13.235 32.525 13.3333 33 13.3333C35.2983 13.3333 37.1667 11.465 37.1667 9.16665C37.1667 6.86832 35.2983 4.99998 33 4.99998ZM22.1667 23.3333C20.3283 23.3333 18.8333 21.8383 18.8333 20C18.8333 18.1616 20.3283 16.6666 22.1667 16.6666C24.005 16.6666 25.5 18.1616 25.5 20C25.5 21.8383 24.005 23.3333 22.1667 23.3333Z" fill="white"/>
</g>
<defs>
<clipPath id="clip0_2053_108">
<rect width="40" height="40" fill="white" transform="translate(0.5)"/>
</clipPath>
</defs>
</svg>
