<svg xmlns="http://www.w3.org/2000/svg">
<path id="linkedin" fill-rule="evenodd" clip-rule="evenodd" d="M20 0.800049C9.396 0.800049 0.800003 9.39605 0.800003 20C0.800003 30.604 9.396 39.2001 20 39.2001C30.604 39.2001 39.2 30.604 39.2 20C39.2 9.39605 30.604 0.800049 20 0.800049ZM15.3 27.958H11.412V15.446H15.3V27.958ZM13.332 13.91C12.104 13.91 11.31 13.04 11.31 11.964C11.31 10.866 12.128 10.022 13.382 10.022C14.636 10.022 15.404 10.866 15.428 11.964C15.428 13.04 14.636 13.91 13.332 13.91ZM29.5 27.958H25.612V21.024C25.612 19.41 25.048 18.314 23.642 18.314C22.568 18.314 21.93 19.056 21.648 19.7701C21.544 20.024 21.518 20.3841 21.518 20.7421V27.956H17.628V19.4361C17.628 17.8741 17.578 16.568 17.526 15.444H20.904L21.082 17.182H21.16C21.672 16.366 22.926 15.162 25.024 15.162C27.582 15.162 29.5 16.876 29.5 20.56V27.958Z" fill="#3D445C"/>

<path id="face" fill-rule="evenodd" clip-rule="evenodd" d="M0 20.1117C0 30.055 7.22167 38.3233 16.6667 40V25.555H11.6667V20H16.6667V15.555C16.6667 10.555 19.8883 7.77833 24.445 7.77833C25.8883 7.77833 27.445 8 28.8883 8.22167V13.3333H26.3333C23.8883 13.3333 23.3333 14.555 23.3333 16.1117V20H28.6667L27.7783 25.555H23.3333V40C32.7783 38.3233 40 30.0567 40 20.1117C40 9.05 31 0 20 0C9 0 0 9.05 0 20.1117Z" fill="#3D445C"/>


<path id="twitter" fill-rule="evenodd" clip-rule="evenodd" d="M20 0.800049C9.39599 0.800049 0.799988 9.39605 0.799988 20C0.799988 30.604 9.39599 39.2001 20 39.2001C30.604 39.2001 39.2 30.604 39.2 20C39.2 9.39605 30.604 0.800049 20 0.800049ZM27.81 16.528C27.818 16.692 27.82 16.8561 27.82 17.0161C27.82 22.0161 24.018 27.778 17.062 27.778C15.0066 27.7815 12.9939 27.1911 11.266 26.078C11.56 26.114 11.862 26.128 12.168 26.128C13.94 26.128 15.57 25.5261 16.864 24.51C16.0754 24.4946 15.3113 24.2334 14.6782 23.7631C14.0451 23.2927 13.5745 22.6366 13.332 21.886C13.8983 21.9937 14.4817 21.9712 15.038 21.82C14.1821 21.647 13.4124 21.1832 12.8594 20.5074C12.3064 19.8316 12.0042 18.9853 12.004 18.112V18.066C12.514 18.348 13.098 18.5201 13.718 18.5401C12.9156 18.0059 12.3476 17.1854 12.1301 16.2463C11.9126 15.3072 12.0621 14.3206 12.548 13.488C13.4979 14.656 14.6825 15.6115 16.0251 16.2927C17.3677 16.9738 18.8384 17.3654 20.342 17.442C20.1508 16.6307 20.2331 15.7789 20.576 15.0191C20.9189 14.2593 21.5032 13.634 22.2381 13.2406C22.973 12.8471 23.8173 12.7075 24.6398 12.8434C25.4622 12.9793 26.2167 13.3831 26.786 13.992C27.6323 13.8246 28.4439 13.5142 29.186 13.074C28.9039 13.9503 28.3133 14.6944 27.524 15.168C28.2737 15.0778 29.0057 14.8762 29.696 14.57C29.189 15.3298 28.5503 15.9929 27.81 16.528Z" fill="#3D445C"/>


</svg>
